<svg width="40" height="40" viewBox="0 0 40 40" fill="none" xmlns="http://www.w3.org/2000/svg">
<path d="M19.983 3.33334C10.783 3.33334 3.33301 10.8 3.33301 20C3.33301 29.2 10.783 36.6667 19.983 36.6667C29.1997 36.6667 36.6663 29.2 36.6663 20C36.6663 10.8 29.1997 3.33334 19.983 3.33334ZM19.9997 33.3333C12.633 33.3333 6.66634 27.3667 6.66634 20C6.66634 12.6333 12.633 6.66668 19.9997 6.66668C27.3663 6.66668 33.333 12.6333 33.333 20C33.333 27.3667 27.3663 33.3333 19.9997 33.3333ZM20.833 11.6667H18.333V21.6667L27.083 26.9167L28.333 24.8667L20.833 20.4167V11.6667Z" fill="white"/>
</svg>
