<svg width="469" height="36" viewBox="0 0 469 36" fill="none" xmlns="http://www.w3.org/2000/svg">
<path d="M229.063 28.3319C226.901 30.8179 227.012 31.1049 225.572 32.54C224.128 33.9798 222.933 35.0214 221.239 35.0214C219.1 35.0214 217.438 33.9613 216.258 31.8364C215.077 29.7115 214.485 26.8875 214.485 23.3599C214.485 21.1934 214.767 19.212 215.337 17.4204C215.906 15.6288 216.725 14.2076 217.795 13.1475C218.864 12.092 220.133 11.5642 221.605 11.5642C223.521 11.5642 225.026 12.5132 226.128 14.4159C227.225 16.3186 227.776 18.837 227.776 21.9757H216.943V22.897C216.943 24.7025 217.137 26.369 217.526 27.8967C217.915 29.4244 218.48 30.642 219.216 31.5401C219.952 32.4428 220.822 32.8919 221.822 32.8919C222.933 32.8919 224.401 31.9197 225.494 30.8827C226.595 29.8318 226.447 29.8226 227.864 28.3273H229.063V28.3319ZM218.443 15.0872C217.693 16.4899 217.221 18.3185 217.026 20.5684H225.318C225.318 18.4296 225.003 16.6288 224.378 15.1705C223.753 13.7123 222.785 12.9854 221.48 12.9854C220.174 12.9854 219.188 13.6891 218.438 15.0918L218.443 15.0872Z" fill="#231F20"/>
<path d="M409.202 13.3049C408.341 13.3049 407.707 13.4947 407.304 13.8697C406.901 14.2447 406.535 15.0456 406.202 16.2678L400.832 35.1418H399.499L396.078 23.3091L392.541 35.1418H391.166L384.995 16.2261C384.717 15.3928 384.453 14.7678 384.203 14.3512C383.953 13.9345 383.652 13.6568 383.305 13.5179C382.958 13.379 382.476 13.3096 381.87 13.3096V12.3929H389.62V13.3096C388.703 13.3096 388.078 13.3744 387.745 13.4994C387.411 13.6244 387.245 13.8836 387.245 14.2725C387.245 14.6058 387.397 15.2585 387.703 16.2307L392.332 30.605H392.457L395.369 20.8138L394.036 16.2307C393.703 15.0363 393.332 14.254 392.93 13.879C392.527 13.504 391.879 13.3188 390.995 13.3188V12.4022H398.494V13.3188C397.633 13.3188 397.041 13.3883 396.726 13.5272C396.406 13.666 396.249 13.9299 396.249 14.3188C396.249 14.6521 396.388 15.3048 396.666 16.277L400.67 30.2347H400.795L404.79 16.277C405.068 15.3604 405.207 14.7215 405.207 14.3604C405.207 13.9438 405.031 13.666 404.684 13.5272C404.336 13.3883 403.688 13.3188 402.749 13.3188V12.4022H409.207V13.3188L409.202 13.3049Z" fill="#231F20"/>
<path d="M415.85 32.1744C415.975 32.591 416.216 32.8827 416.581 33.0493C416.943 33.216 417.54 33.2993 418.373 33.2993V34.1743H410.623V33.2993C411.457 33.2993 412.054 33.216 412.415 33.0493C412.776 32.8827 413.017 32.591 413.142 32.1744C413.267 31.7577 413.327 31.0911 413.327 30.1745V16.3835C413.327 15.328 413.295 14.6428 413.239 14.3234C413.183 14.004 413.003 13.8419 412.697 13.8466C412.42 13.8466 411.92 14.0132 411.197 14.3465L410.822 13.5549L415.156 11.555L415.656 12.055V30.1791C415.66 31.0957 415.725 31.7623 415.85 32.179V32.1744ZM412.799 3.28227C412.424 2.90729 412.234 2.45823 412.234 1.93048C412.234 1.40272 412.42 0.953676 412.795 0.574065C413.17 0.194454 413.619 0.00927734 414.146 0.00927734C414.674 0.00927734 415.128 0.194449 415.503 0.569431C415.878 0.944412 416.068 1.3981 416.068 1.92122C416.068 2.44434 415.882 2.90265 415.503 3.27763C415.128 3.65261 414.679 3.84242 414.151 3.84242C413.623 3.84242 413.17 3.65725 412.795 3.28227H412.799Z" fill="#231F20"/>
<path d="M424.743 15.4251C426.493 12.8419 428.354 11.5503 430.326 11.5503C433.048 11.5503 434.409 13.4113 434.409 17.1333V30.1744C434.409 31.091 434.474 31.7576 434.599 32.1743C434.724 32.5909 434.974 32.8826 435.349 33.0492C435.724 33.2159 436.33 33.2992 437.164 33.2992V34.1742H429.456V33.2992C430.261 33.2992 430.844 33.2159 431.206 33.0492C431.567 32.8826 431.812 32.5909 431.932 32.1743C432.057 31.7576 432.118 31.091 432.118 30.1744V17.1333C432.118 14.6612 431.28 13.4252 429.613 13.4252C428.085 13.4252 426.419 14.564 424.613 16.8417V30.1744C424.613 31.091 424.674 31.7576 424.785 32.1743C424.896 32.5909 425.132 32.8826 425.493 33.0492C425.854 33.2159 426.437 33.2992 427.243 33.2992V34.1742H419.577V33.2992C420.41 33.2992 421.007 33.2159 421.368 33.0492C421.729 32.8826 421.97 32.5909 422.095 32.1743C422.22 31.7576 422.28 31.091 422.28 30.1744V16.3834C422.28 15.3279 422.248 14.6427 422.192 14.3233C422.137 14.0039 421.956 13.8419 421.651 13.8465C421.373 13.8465 420.873 14.0131 420.151 14.3465L419.776 13.5548L424.109 11.5549L424.609 12.0549V15.4297H424.734L424.743 15.4251Z" fill="#231F20"/>
<path d="M455.621 33.04L451.288 34.9983L450.829 34.54V30.9985H450.663C449.802 32.3595 448.955 33.3687 448.121 34.0215C447.288 34.6742 446.344 35.0029 445.288 35.0029C443.177 35.0029 441.543 34.0168 440.39 32.0447C439.237 30.0726 438.659 27.4477 438.659 24.1701C438.659 20.5869 439.288 17.5871 440.552 15.1705C441.816 12.754 443.668 11.5457 446.112 11.5457C447.057 11.5457 447.927 11.8003 448.718 12.3142C449.51 12.8281 450.181 13.4854 450.742 14.291H450.825V4.8331C450.825 3.77759 450.797 3.08318 450.742 2.74987C450.686 2.41655 450.505 2.24988 450.2 2.24988C449.922 2.24988 449.422 2.41655 448.7 2.74987L448.325 1.95823L452.658 0L453.116 0.458306L453.126 30.1652C453.126 31.2207 453.153 31.9151 453.209 32.2484C453.265 32.5817 453.445 32.7484 453.751 32.7484C454.056 32.7484 454.556 32.5817 455.251 32.2484L455.626 33.04H455.621ZM450.825 20.7073C450.825 18.3185 450.422 16.4297 449.617 15.0409C448.811 13.6521 447.742 12.9577 446.408 12.9577C444.575 12.9577 443.256 13.953 442.45 15.939C441.645 17.925 441.242 20.3508 441.242 23.2118C441.242 26.2117 441.64 28.6051 442.432 30.3967C443.223 32.1882 444.399 33.0817 445.955 33.0817C447.066 33.0817 447.959 32.7623 448.644 32.1234C449.325 31.4846 450.052 30.5263 450.829 29.2486V20.7073H450.825Z" fill="#231F20"/>
<path d="M458.663 26.4153C458.885 28.5818 459.468 30.3179 460.412 31.6234C461.357 32.9289 462.551 33.5816 463.996 33.5816C464.94 33.5816 465.639 33.2899 466.097 32.7066C466.556 32.1233 466.783 31.3039 466.783 30.2484C466.783 29.3596 466.588 28.5355 466.199 27.7717C465.81 27.0078 465.324 26.3134 464.741 25.6885C464.158 25.0635 463.283 24.2256 462.116 23.1701C460.588 21.7535 459.477 20.573 458.783 19.6286C458.089 18.6842 457.741 17.5731 457.741 16.2954C457.741 14.9344 458.186 13.8002 459.075 12.8974C459.963 11.9947 461.088 11.541 462.449 11.541C463.227 11.541 463.866 11.6614 464.366 11.8929C464.866 12.129 465.352 12.4299 465.824 12.7863C466.185 13.0641 466.449 13.203 466.616 13.203C466.838 13.203 466.968 13.115 467.014 12.9298C467.056 12.7493 467.074 12.4252 467.074 11.9484H467.949V18.6147H467.074C466.796 16.9482 466.273 15.5871 465.509 14.5316C464.746 13.4761 463.764 12.9484 462.57 12.9484C461.681 12.9484 461.019 13.2354 460.593 13.8048C460.162 14.3742 459.95 14.9945 459.95 15.6612C459.95 16.6889 460.292 17.6472 460.973 18.536C461.653 19.4249 462.69 20.4804 464.079 21.7025C465.94 23.3414 467.227 24.707 467.935 25.8042C468.644 26.9014 469 28.2254 469 29.7809C469 31.4474 468.537 32.7344 467.607 33.6372C466.676 34.5399 465.519 34.9936 464.13 34.9936C463.297 34.9936 462.593 34.8825 462.024 34.6602C461.454 34.438 460.88 34.1464 460.297 33.7853C460.241 33.7575 460.102 33.6742 459.88 33.5353C459.658 33.3964 459.463 33.327 459.297 33.327C459.047 33.327 458.88 33.4242 458.797 33.6186C458.713 33.8131 458.672 34.1325 458.672 34.5769H457.797V26.4107H458.672L458.663 26.4153Z" fill="#231F20"/>
<path d="M227.864 28.332C253.011 -1.70356 330.863 9.93475 381.87 12.393V13.3096C336.65 10.3514 250.525 0.736128 229.063 28.332H227.864Z" fill="#231F20"/>
<path d="M11.4902 0.685073C12.2401 1.08783 12.8327 1.59706 13.2632 2.20352C13.6938 2.8146 13.9114 3.43957 13.9114 4.07843C13.9114 4.63396 13.7678 5.06448 13.4762 5.37002C13.1845 5.67557 12.8142 5.82835 12.3744 5.82835C11.9346 5.82835 11.555 5.68947 11.2494 5.4117C10.9439 5.13394 10.7772 4.71729 10.7495 4.16176C10.7217 3.35624 10.5736 2.71276 10.3097 2.22667C10.0458 1.74058 9.46713 1.49985 8.57828 1.49985C7.21724 1.49985 6.27747 2.09241 5.76823 3.27291C5.25437 4.4534 4.99975 6.14314 4.99975 8.33747V12.4623H8.87456V13.8789H4.99975V30.2531C4.99975 31.1697 5.09234 31.8363 5.27752 32.253C5.45806 32.6696 5.82379 32.9613 6.38394 33.1279C6.93947 33.2946 7.82832 33.3779 9.05048 33.3779V34.2529H0.0092588V33.3779C0.842551 33.3779 1.43974 33.2946 1.80084 33.1279C2.16193 32.9613 2.40266 32.6696 2.52765 32.253C2.65265 31.8363 2.71283 31.1697 2.71283 30.2531V13.8789H0V12.4623H2.7082V10.0457C2.7082 6.79588 3.20817 4.32379 4.2035 2.62943C5.20345 0.935066 6.80059 0.0878906 8.99493 0.0878906C9.91155 0.0878906 10.7448 0.286949 11.4948 0.689707L11.4902 0.685073Z" fill="#231F20"/>
<path d="M24.4155 25.3644C24.0822 28.531 23.3184 30.9429 22.124 32.5956C20.9296 34.2483 19.4852 35.0769 17.7909 35.0769C15.6521 35.0769 13.9901 34.0168 12.8096 31.8919C11.6291 29.767 11.0366 26.9431 11.0366 23.4155C11.0366 21.2489 11.319 19.2675 11.8884 17.476C12.4578 15.6844 13.2772 14.2631 14.3466 13.203C15.416 12.1475 16.6844 11.6198 18.1566 11.6198C20.0732 11.6198 21.5777 12.5688 22.6795 14.4715C23.7767 16.3741 24.3276 18.8925 24.3276 22.0313H13.4948V22.9525C13.4948 24.758 13.6892 26.4246 14.0781 27.9523C14.4669 29.48 15.0317 30.6975 15.7678 31.5956C16.5039 32.4984 17.3742 32.9474 18.3742 32.9474C19.4852 32.9474 20.4991 32.3502 21.4157 31.1558C22.3323 29.9614 23.0406 28.031 23.5406 25.3644H24.4155ZM14.9947 15.1381C14.2447 16.5408 13.7725 18.3694 13.5781 20.6193H21.8694C21.8694 18.4805 21.5546 16.6797 20.9296 15.2214C20.3046 13.7632 19.3371 13.0364 18.0316 13.0364C16.7261 13.0364 15.74 13.74 14.9901 15.1427L14.9947 15.1381Z" fill="#231F20"/>
<path d="M28.1653 26.4894C28.3875 28.6559 28.9708 30.392 29.9152 31.6975C30.8596 33.0029 32.054 33.6557 33.4984 33.6557C34.4428 33.6557 35.1465 33.364 35.6002 32.7807C36.0585 32.1974 36.2853 31.378 36.2853 30.3225C36.2853 29.4337 36.0909 28.6096 35.702 27.8458C35.3131 27.0819 34.827 26.3875 34.2437 25.7626C33.6604 25.1376 32.7855 24.2997 31.6189 23.2442C30.0912 21.8276 28.9801 20.6471 28.2857 19.7027C27.5913 18.7583 27.2441 17.6472 27.2441 16.3695C27.2441 15.0085 27.6885 13.8743 28.5773 12.9715C29.4662 12.0688 30.5911 11.6151 31.9522 11.6151C32.7299 11.6151 33.3688 11.7355 33.8688 11.9669C34.3687 12.203 34.8548 12.504 35.327 12.8604C35.6881 13.1382 35.952 13.2771 36.1186 13.2771C36.3409 13.2771 36.4751 13.1891 36.5121 13.0039C36.5538 12.8234 36.5723 12.4993 36.5723 12.0225H37.4473V18.6888H36.5723C36.2946 17.0223 35.7714 15.6612 35.0076 14.6057C34.2437 13.5502 33.2623 13.0224 32.0679 13.0224C31.1791 13.0224 30.5171 13.3095 30.0912 13.8789C29.6606 14.4483 29.4477 15.0686 29.4477 15.7353C29.4477 16.763 29.7856 17.7213 30.4708 18.6101C31.1513 19.499 32.1883 20.5545 33.5771 21.7766C35.4381 23.4154 36.7251 24.7811 37.4334 25.8783C38.1417 26.9755 38.4982 28.2995 38.4982 29.855C38.4982 31.5215 38.0352 32.8085 37.1047 33.7112C36.1742 34.614 35.0168 35.0677 33.628 35.0677C32.7947 35.0677 32.0911 34.9566 31.5216 34.7343C30.9522 34.5121 30.3736 34.2205 29.7903 33.8594C29.7347 33.8316 29.5958 33.7483 29.3736 33.6094C29.1514 33.4705 28.957 33.4011 28.7903 33.4011C28.5403 33.4011 28.3737 33.4983 28.2903 33.6927C28.207 33.8872 28.1653 34.2066 28.1653 34.651H27.2904V26.4847H28.1653V26.4894Z" fill="#231F20"/>
<path d="M51.1409 30.7115C50.9048 32.142 50.4743 33.2252 49.8493 33.9613C49.2244 34.6974 48.3448 35.0678 47.206 35.0678C45.7338 35.0678 44.6274 34.4844 43.8913 33.3178C43.1552 32.1512 42.7849 30.2347 42.7849 27.5681V13.8605H39.3221V12.4439C40.5165 12.4161 41.447 12.2124 42.1136 11.8374C42.7802 11.4624 43.2571 10.8513 43.5487 10.0042C43.8404 9.15699 44.0117 7.98113 44.0672 6.4812H45.0672V12.4392H50.1086V13.8558H45.0672V26.0219C45.0672 27.744 45.1227 29.0819 45.2338 30.0402C45.3449 30.9985 45.5903 31.7577 45.9653 32.3086C46.3403 32.8641 46.9282 33.1419 47.7383 33.1419C48.7661 33.1419 49.5021 32.5447 49.9466 31.3503C50.391 30.156 50.6271 28.0588 50.6549 25.059H51.5298C51.502 27.3922 51.3724 29.2764 51.1363 30.7022L51.1409 30.7115Z" fill="#231F20"/>
<path d="M57.9786 32.2345C58.1036 32.6512 58.349 32.9428 58.7101 33.1095C59.0711 33.2761 59.6683 33.3595 60.5016 33.3595V34.2344H52.752V33.3595C53.5853 33.3595 54.1825 33.2761 54.5436 33.1095C54.9047 32.9428 55.1454 32.6512 55.2704 32.2345C55.3954 31.8179 55.4556 31.1513 55.4556 30.2346V16.4436C55.4556 15.3881 55.4232 14.703 55.3676 14.3836C55.3121 14.0641 55.1315 13.9021 54.826 13.9067C54.5482 13.9067 54.0482 14.0734 53.3261 14.4067L52.9511 13.6151L57.2842 11.6152L57.7842 12.1152V30.2393C57.7888 31.1559 57.8536 31.8225 57.9786 32.2392V32.2345ZM54.9278 3.34245C54.5529 2.96747 54.363 2.51841 54.363 1.99066C54.363 1.4629 54.5482 1.01386 54.9232 0.634245C55.2982 0.254635 55.7472 0.069458 56.275 0.069458C56.8027 0.069458 57.2564 0.25463 57.6314 0.629612C58.0064 1.00459 58.1962 1.45828 58.1962 1.9814C58.1962 2.50453 58.011 2.96283 57.636 3.33781C57.2611 3.7128 56.8074 3.9026 56.2842 3.9026C55.7611 3.9026 55.3074 3.71743 54.9278 3.34245Z" fill="#231F20"/>
<path d="M74.2 14.4391C74.2 13.9947 74.0241 13.703 73.6769 13.5642C73.3297 13.4253 72.6816 13.3558 71.7372 13.3558V12.4392H78.2369V13.3558C77.3758 13.3558 76.7508 13.5456 76.362 13.9206C75.9731 14.2956 75.5981 15.0965 75.237 16.3186L69.8669 35.1927H68.492L63.0293 16.277C62.6682 15.0826 62.2932 14.3002 61.9043 13.9252C61.5155 13.5503 60.8905 13.3651 60.0294 13.3651V12.4485H67.4874V13.3651C66.6541 13.3651 66.0754 13.4345 65.7606 13.5734C65.4412 13.7123 65.2838 13.9762 65.2838 14.365C65.2838 14.6984 65.4227 15.3511 65.7004 16.3233L69.7049 30.2809H69.8299L73.825 16.3233C74.075 15.49 74.2 14.865 74.2 14.4484V14.4391Z" fill="#231F20"/>
<path d="M94.7037 31.5123C94.3704 32.7344 94.0093 33.6325 93.6204 34.202C93.2315 34.7714 92.6066 35.0584 91.7455 35.0584C90.8011 35.0584 90.1391 34.7482 89.7641 34.1233C89.3891 33.4983 89.1993 32.6187 89.1993 31.4799V30.6882H89.116C88.4494 31.8548 87.6716 32.878 86.7828 33.7529C85.8939 34.6279 84.7273 35.0677 83.2829 35.0677C81.8386 35.0677 80.7877 34.6093 80.0516 33.6927C79.3155 32.7761 78.9452 31.5262 78.9452 29.9429C78.9452 28.3597 79.3248 26.9523 80.0887 25.8783C80.8525 24.8089 81.7321 23.9663 82.732 23.3553C83.732 22.7442 85.2458 21.9387 87.2735 20.9387L89.1901 20.0221V17.9389C89.1901 16.2445 88.9678 14.9668 88.5234 14.1057C88.079 13.2447 87.1346 12.8141 85.6902 12.8141C84.7458 12.8141 83.9635 13.0178 83.3385 13.4206C82.7135 13.8233 82.4034 14.3603 82.4034 15.027C82.4034 15.3603 82.5422 15.7769 82.82 16.2769C82.8478 16.3603 82.9172 16.5269 83.0283 16.7769C83.1394 17.0269 83.195 17.2908 83.195 17.5685C83.195 17.9574 83.0561 18.2629 82.7783 18.4851C82.5006 18.7074 82.1395 18.8185 81.6951 18.8185C81.1673 18.8185 80.7553 18.5916 80.4636 18.1333C80.172 17.675 80.0238 17.0315 80.0238 16.1982C80.0238 14.8094 80.5701 13.6983 81.6673 12.865C82.7644 12.0317 84.1718 11.6151 85.8939 11.6151C89.6437 11.6151 91.5186 13.7678 91.5186 18.0731V31.6141C91.5186 32.3641 91.5696 32.8918 91.6668 33.1974C91.764 33.5029 91.9908 33.6557 92.3566 33.6557C92.6621 33.6557 92.9028 33.5029 93.0834 33.1974C93.2639 32.8918 93.5047 32.3363 93.8102 31.5308H94.6852L94.7037 31.5123ZM86.6207 32.1372C87.3429 31.5817 88.204 30.6512 89.2039 29.3457V21.3461L87.329 22.2627C85.4125 23.2071 83.9403 24.2441 82.9126 25.3691C81.8849 26.494 81.371 27.8504 81.371 29.4337C81.371 30.6003 81.6164 31.4845 82.1024 32.0771C82.5885 32.6743 83.2922 32.9705 84.2088 32.9705C85.1254 32.9705 85.9032 32.6928 86.6254 32.1372H86.6207Z" fill="#231F20"/>
<path d="M100.727 32.2206C100.852 32.6373 101.097 32.9289 101.458 33.0956C101.819 33.2622 102.416 33.3456 103.25 33.3456V34.2205H95.4999V33.3456C96.3332 33.3456 96.9304 33.2622 97.2915 33.0956C97.6526 32.9289 97.8933 32.6373 98.0183 32.2206C98.1433 31.804 98.2035 31.1373 98.2035 30.2207V4.88864C98.1989 3.83313 98.1665 3.14797 98.1109 2.82391C98.0554 2.50449 97.8748 2.34246 97.5693 2.34709C97.2915 2.34709 96.7915 2.51375 96.0694 2.84707L95.6944 2.01377L100.027 0.055542L100.527 0.513848L100.537 30.2207C100.537 31.1373 100.602 31.804 100.727 32.2206Z" fill="#231F20"/>
<path d="M175.385 0.6481C176.135 1.05086 176.727 1.56009 177.158 2.16654C177.588 2.77762 177.806 3.40259 177.806 4.04144C177.806 4.59697 177.663 5.02751 177.371 5.33305C177.079 5.63859 176.709 5.79136 176.269 5.79136C175.829 5.79136 175.45 5.65248 175.144 5.37471C174.839 5.09695 174.672 4.68031 174.644 4.12478C174.616 3.31927 174.468 2.67577 174.204 2.18968C173.941 1.7036 173.362 1.46288 172.473 1.46288C171.112 1.46288 170.172 2.05544 169.663 3.23593C169.149 4.41643 168.894 6.10616 168.894 8.3005V12.4253L171.913 12.5457L171.959 13.7123L168.894 13.8419V30.2161C168.894 31.1327 168.987 31.7993 169.172 32.216C169.353 32.6326 169.718 32.9243 170.279 33.0909C170.834 33.2576 171.723 33.3409 172.945 33.3409V34.2159H163.904V33.3409C164.737 33.3409 165.334 33.2576 165.696 33.0909C166.057 32.9243 166.297 32.6326 166.422 32.216C166.547 31.7993 166.608 31.1327 166.608 30.2161V13.8419H163.895V12.4253H166.603V10.0087C166.603 6.75891 167.103 4.2868 168.098 2.59244C169.098 0.898079 170.695 0.0509033 172.89 0.0509033C173.806 0.0509033 174.64 0.249976 175.39 0.652734L175.385 0.6481Z" fill="#231F20"/>
<path d="M149.284 33.4798C148.034 32.4521 147.081 31.0494 146.428 29.2717C145.775 27.494 145.447 25.508 145.447 23.3136C145.447 21.1193 145.771 19.1287 146.428 17.3371C147.081 15.5455 148.03 14.1382 149.284 13.1058C150.534 12.0781 152.006 11.5642 153.701 11.5642C155.395 11.5642 156.826 12.0781 158.076 13.1058C159.325 14.1335 160.275 15.5455 160.932 17.3371C161.585 19.1287 161.913 21.1239 161.913 23.3136C161.913 25.5033 161.585 27.494 160.932 29.2717C160.279 31.0494 159.33 32.4521 158.076 33.4798C156.826 34.5075 155.367 35.0214 153.701 35.0214C152.034 35.0214 150.534 34.5075 149.284 33.4798ZM157.992 31.2716C158.909 29.7439 159.367 27.6468 159.367 24.9802C159.367 24.0358 159.339 23.3136 159.284 22.8137C159.006 19.786 158.326 17.3973 157.242 15.6473C156.159 13.8974 154.798 13.0225 153.159 13.0225C151.52 13.0225 150.247 13.7956 149.344 15.3372C148.442 16.8788 147.993 18.999 147.993 21.6933C147.993 22.11 148.02 22.8183 148.076 23.8182C148.354 26.8459 149.025 29.23 150.099 30.966C151.168 32.7021 152.52 33.5678 154.159 33.5678C155.798 33.5678 157.076 32.8039 157.992 31.2762V31.2716Z" fill="#231F20"/>
<path d="M172.871 33.3271C176.505 33.2669 177.491 28.3829 178.662 21.7953C179.834 15.203 181.574 12.4856 183.371 12.4115V13.6568C180.959 13.6429 180.042 19.4065 179.26 23.5684C178.477 27.7302 177.496 34.2021 172.871 34.2021V33.3271Z" fill="#231F20"/>
<path d="M194.328 30.6883C194.092 32.1188 193.662 33.2021 193.037 33.9381C192.412 34.6742 191.532 35.0446 190.393 35.0446C188.921 35.0446 187.815 34.4613 187.079 33.2947C186.343 32.128 185.972 30.2115 185.972 27.5449V13.8373L183.371 13.6567V12.416C183.704 12.3975 184.634 12.1938 185.301 11.8189C185.968 11.4439 186.449 10.8328 186.736 9.98561C187.028 9.13843 187.199 7.96257 187.255 6.46265H188.255V12.4207H193.296V13.8373H188.255V26.0033C188.255 27.7255 188.31 29.0634 188.421 30.0217C188.532 30.9799 188.778 31.7392 189.153 32.2901C189.528 32.8456 190.116 33.1234 190.921 33.1234C191.949 33.1234 192.685 32.5262 193.129 31.3318C193.574 30.1374 193.81 28.0403 193.838 25.0404H194.713C194.685 27.3737 194.551 29.2578 194.319 30.6837L194.328 30.6883Z" fill="#231F20"/>
<path d="M201.097 15.4575C202.847 12.8743 204.708 11.5827 206.68 11.5827C209.402 11.5827 210.763 13.4437 210.763 17.1658V30.2068C210.763 31.1234 210.828 31.79 210.953 32.2067C211.078 32.6233 211.328 32.915 211.703 33.0817C212.078 33.2483 212.684 33.3317 213.517 33.3317V34.2066H205.809V33.3317C206.615 33.3317 207.198 33.2483 207.559 33.0817C207.92 32.915 208.166 32.6233 208.286 32.2067C208.411 31.79 208.471 31.1234 208.471 30.2068V17.1658C208.471 14.6937 207.633 13.4576 205.967 13.4576C204.439 13.4576 202.772 14.5965 200.967 16.8741V30.2068C200.967 31.1234 201.027 31.79 201.138 32.2067C201.249 32.6233 201.485 32.915 201.847 33.0817C202.208 33.2483 202.791 33.3317 203.596 33.3317V34.2066H195.93V33.3317C196.763 33.3317 197.361 33.2483 197.722 33.0817C198.083 32.915 198.324 32.6233 198.449 32.2067C198.574 31.79 198.634 31.1234 198.634 30.2068V4.87472C198.629 3.81922 198.597 3.13406 198.546 2.81C198.49 2.49057 198.31 2.32854 198.004 2.33317C197.726 2.33317 197.226 2.49984 196.504 2.83315L196.129 1.99985L200.462 0.041626L200.962 0.499932V15.4575H201.092H201.097Z" fill="#231F20"/>
<path d="M143.947 16.9992C127.503 16.3881 122.281 10.8328 114.499 14.5317C111.332 16.0363 111.263 19.6379 107.921 30.9013C107.328 32.8966 106.319 33.2484 103.245 33.3456V34.2206C104.939 34.2206 107.254 34.3409 108.485 31.2392C112.319 21.5777 111.476 15.7909 116.976 14.6336C123.225 13.3188 131.582 17.851 144.146 17.9297C146.359 17.2075 145.604 17.6103 145.451 22.6563L148.386 13.9808C147.798 15.2122 146.618 17.101 143.947 17.0038V16.9992Z" fill="#231F20"/>
</svg>
