<svg width="32" height="32" viewBox="0 0 32 32" fill="none" xmlns="http://www.w3.org/2000/svg">
<path d="M16.0003 2.66663C10.8403 2.66663 6.66699 6.83996 6.66699 12C6.66699 19 16.0003 29.3333 16.0003 29.3333C16.0003 29.3333 25.3337 19 25.3337 12C25.3337 6.83996 21.1603 2.66663 16.0003 2.66663ZM9.33366 12C9.33366 8.31996 12.3203 5.33329 16.0003 5.33329C19.6803 5.33329 22.667 8.31996 22.667 12C22.667 15.84 18.827 21.5866 16.0003 25.1733C13.227 21.6133 9.33366 15.8 9.33366 12Z" fill="black"/>
<path d="M16.0003 15.3333C17.8413 15.3333 19.3337 13.8409 19.3337 12C19.3337 10.159 17.8413 8.66663 16.0003 8.66663C14.1594 8.66663 12.667 10.159 12.667 12C12.667 13.8409 14.1594 15.3333 16.0003 15.3333Z" fill="black"/>
</svg>
