<svg width="24" height="25" viewBox="0 0 24 25" fill="none" xmlns="http://www.w3.org/2000/svg">
<path d="M6.54 5.59631C6.6 6.48631 6.75 7.35631 6.99 8.18631L5.79 9.38631C5.38 8.18631 5.12 6.91631 5.03 5.59631H6.54ZM16.4 17.6163C17.25 17.8563 18.12 18.0063 19 18.0663V19.5563C17.68 19.4663 16.41 19.2063 15.2 18.8063L16.4 17.6163ZM7.5 3.59631H4C3.45 3.59631 3 4.04631 3 4.59631C3 13.9863 10.61 21.5963 20 21.5963C20.55 21.5963 21 21.1463 21 20.5963V17.1063C21 16.5563 20.55 16.1063 20 16.1063C18.76 16.1063 17.55 15.9063 16.43 15.5363C16.33 15.4963 16.22 15.4863 16.12 15.4863C15.86 15.4863 15.61 15.5863 15.41 15.7763L13.21 17.9763C10.38 16.5263 8.06 14.2163 6.62 11.3863L8.82 9.18631C9.1 8.90631 9.18 8.51631 9.07 8.16631C8.7 7.04631 8.5 5.84631 8.5 4.59631C8.5 4.04631 8.05 3.59631 7.5 3.59631Z" fill="black"/>
</svg>
