<svg width="3810" height="112" viewBox="0 0 3810 112" fill="none" xmlns="http://www.w3.org/2000/svg">
<rect width="3810" height="112" fill="black"/>
<path d="M18 38.3232L50.1429 6L82.2857 38.3232L50.1429 106L18 38.3232Z" fill="#FF7347"/>
<path d="M124 38.3232L156.143 6L188.286 38.3232L156.143 106L124 38.3232Z" fill="#DCFF7A"/>
<path d="M230 38.3232L262.143 6L294.286 38.3232L262.143 106L230 38.3232Z" fill="#FF7347"/>
<path d="M367.994 6H318V55.9943H367.994V6Z" fill="#4374DB"/>
<path d="M418 55.9941H368.006V105.988H418V55.9941Z" fill="#4374DB"/>
<path d="M368.004 6H355.506L417.998 68.5042V55.9943L368.004 6Z" fill="#4374DB"/>
<path d="M318 55.9944L368.005 106H380.503L318 43.4958V55.9944Z" fill="#4374DB"/>
<path d="M474 14L424 98.6154C434.101 91.7778 458.242 78.1026 474 78.1026C489.758 78.1026 513.899 91.7778 524 98.6154L474 14Z" fill="#FF7347"/>
<path d="M548 38.3232L580.143 6L612.286 38.3232L580.143 106L548 38.3232Z" fill="#4374DB"/>
<path d="M686 14L636 98.6154C646.101 91.7778 670.242 78.1026 686 78.1026C701.758 78.1026 725.899 91.7778 736 98.6154L686 14Z" fill="#FF7347"/>
<path d="M791.994 6H742V55.9943H791.994V6Z" fill="#DCFF7A"/>
<path d="M842 55.9941H792.006V105.988H842V55.9941Z" fill="#DCFF7A"/>
<path d="M792.004 6H779.506L841.998 68.5042V55.9943L792.004 6Z" fill="#DCFF7A"/>
<path d="M742 55.9944L792.005 106H804.503L742 43.4958V55.9944Z" fill="#DCFF7A"/>
<path d="M897.994 6H848V55.9943H897.994V6Z" fill="#FF7347"/>
<path d="M948 55.9941H898.006V105.988H948V55.9941Z" fill="#FF7347"/>
<path d="M898.004 6H885.506L947.998 68.5042V55.9943L898.004 6Z" fill="#FF7347"/>
<path d="M848 55.9944L898.005 106H910.503L848 43.4958V55.9944Z" fill="#FF7347"/>
<path d="M1004 14L954 98.6154C964.101 91.7778 988.242 78.1026 1004 78.1026C1019.76 78.1026 1043.9 91.7778 1054 98.6154L1004 14Z" fill="#4374DB"/>
<path d="M1109.99 6H1060V55.9943H1109.99V6Z" fill="#FF7347"/>
<path d="M1160 55.9941H1110.01V105.988H1160V55.9941Z" fill="#FF7347"/>
<path d="M1110 6H1097.51L1160 68.5042V55.9943L1110 6Z" fill="#FF7347"/>
<path d="M1060 55.9944L1110.01 106H1122.5L1060 43.4958V55.9944Z" fill="#FF7347"/>
<path d="M1215.99 6H1166V55.9943H1215.99V6Z" fill="#DCFF7A"/>
<path d="M1266 55.9941H1216.01V105.988H1266V55.9941Z" fill="#DCFF7A"/>
<path d="M1216 6H1203.51L1266 68.5042V55.9943L1216 6Z" fill="#DCFF7A"/>
<path d="M1166 55.9944L1216.01 106H1228.5L1166 43.4958V55.9944Z" fill="#DCFF7A"/>
<path d="M1322 14L1272 98.6154C1282.1 91.7778 1306.24 78.1026 1322 78.1026C1337.76 78.1026 1361.9 91.7778 1372 98.6154L1322 14Z" fill="#FF7347"/>
<path d="M1396 38.3232L1428.14 6L1460.29 38.3232L1428.14 106L1396 38.3232Z" fill="#DCFF7A"/>
<path d="M1534 14L1484 98.6154C1494.1 91.7778 1518.24 78.1026 1534 78.1026C1549.76 78.1026 1573.9 91.7778 1584 98.6154L1534 14Z" fill="#FF7347"/>
<path d="M1640 14L1590 98.6154C1600.1 91.7778 1624.24 78.1026 1640 78.1026C1655.76 78.1026 1679.9 91.7778 1690 98.6154L1640 14Z" fill="#DCFF7A"/>
<path d="M1745.99 6H1696V55.9943H1745.99V6Z" fill="#4374DB"/>
<path d="M1796 55.9941H1746.01V105.988H1796V55.9941Z" fill="#4374DB"/>
<path d="M1746 6H1733.51L1796 68.5042V55.9943L1746 6Z" fill="#4374DB"/>
<path d="M1696 55.9944L1746.01 106H1758.5L1696 43.4958V55.9944Z" fill="#4374DB"/>
<path d="M1820 38.3232L1852.14 6L1884.29 38.3232L1852.14 106L1820 38.3232Z" fill="#4374DB"/>
<path d="M1957.99 6H1908V55.9943H1957.99V6Z" fill="#4374DB"/>
<path d="M2008 55.9941H1958.01V105.988H2008V55.9941Z" fill="#4374DB"/>
<path d="M1958 6H1945.51L2008 68.5042V55.9943L1958 6Z" fill="#4374DB"/>
<path d="M1908 55.9944L1958.01 106H1970.5L1908 43.4958V55.9944Z" fill="#4374DB"/>
<path d="M2064 14L2014 98.6154C2024.1 91.7778 2048.24 78.1026 2064 78.1026C2079.76 78.1026 2103.9 91.7778 2114 98.6154L2064 14Z" fill="#DCFF7A"/>
<path d="M2170 14L2120 98.6154C2130.1 91.7778 2154.24 78.1026 2170 78.1026C2185.76 78.1026 2209.9 91.7778 2220 98.6154L2170 14Z" fill="#4374DB"/>
<path d="M2276 14L2226 98.6154C2236.1 91.7778 2260.24 78.1026 2276 78.1026C2291.76 78.1026 2315.9 91.7778 2326 98.6154L2276 14Z" fill="#4374DB"/>
<path d="M2381.99 6H2332V55.9943H2381.99V6Z" fill="#FF7347"/>
<path d="M2432 55.9941H2382.01V105.988H2432V55.9941Z" fill="#FF7347"/>
<path d="M2382 6H2369.51L2432 68.5042V55.9943L2382 6Z" fill="#FF7347"/>
<path d="M2332 55.9944L2382.01 106H2394.5L2332 43.4958V55.9944Z" fill="#FF7347"/>
<path d="M2487.99 6H2438V55.9943H2487.99V6Z" fill="#DCFF7A"/>
<path d="M2538 55.9941H2488.01V105.988H2538V55.9941Z" fill="#DCFF7A"/>
<path d="M2488 6H2475.51L2538 68.5042V55.9943L2488 6Z" fill="#DCFF7A"/>
<path d="M2438 55.9944L2488.01 106H2500.5L2438 43.4958V55.9944Z" fill="#DCFF7A"/>
<path d="M2593.99 6H2544V55.9943H2593.99V6Z" fill="#FF7347"/>
<path d="M2644 55.9941H2594.01V105.988H2644V55.9941Z" fill="#FF7347"/>
<path d="M2594 6H2581.51L2644 68.5042V55.9943L2594 6Z" fill="#FF7347"/>
<path d="M2544 55.9944L2594.01 106H2606.5L2544 43.4958V55.9944Z" fill="#FF7347"/>
<path d="M2668 38.3232L2700.14 6L2732.29 38.3232L2700.14 106L2668 38.3232Z" fill="#FF7347"/>
<path d="M2805.99 6H2756V55.9943H2805.99V6Z" fill="#4374DB"/>
<path d="M2856 55.9941H2806.01V105.988H2856V55.9941Z" fill="#4374DB"/>
<path d="M2806 6H2793.51L2856 68.5042V55.9943L2806 6Z" fill="#4374DB"/>
<path d="M2756 55.9944L2806.01 106H2818.5L2756 43.4958V55.9944Z" fill="#4374DB"/>
<path d="M2911.99 6H2862V55.9943H2911.99V6Z" fill="#DCFF7A"/>
<path d="M2962 55.9941H2912.01V105.988H2962V55.9941Z" fill="#DCFF7A"/>
<path d="M2912 6H2899.51L2962 68.5042V55.9943L2912 6Z" fill="#DCFF7A"/>
<path d="M2862 55.9944L2912.01 106H2924.5L2862 43.4958V55.9944Z" fill="#DCFF7A"/>
<path d="M2986 38.3232L3018.14 6L3050.29 38.3232L3018.14 106L2986 38.3232Z" fill="#4374DB"/>
<path d="M3124 14L3074 98.6154C3084.1 91.7778 3108.24 78.1026 3124 78.1026C3139.76 78.1026 3163.9 91.7778 3174 98.6154L3124 14Z" fill="#DCFF7A"/>
<path d="M3198 38.3232L3230.14 6L3262.29 38.3232L3230.14 106L3198 38.3232Z" fill="#DCFF7A"/>
<path d="M3336 14L3286 98.6154C3296.1 91.7778 3320.24 78.1026 3336 78.1026C3351.76 78.1026 3375.9 91.7778 3386 98.6154L3336 14Z" fill="#4374DB"/>
<path d="M3410 38.3232L3442.14 6L3474.29 38.3232L3442.14 106L3410 38.3232Z" fill="#4374DB"/>
<path d="M3516 38.3232L3548.14 6L3580.29 38.3232L3548.14 106L3516 38.3232Z" fill="#FF7347"/>
<path d="M3654 14L3604 98.6154C3614.1 91.7778 3638.24 78.1026 3654 78.1026C3669.76 78.1026 3693.9 91.7778 3704 98.6154L3654 14Z" fill="#DCFF7A"/>
<path d="M3728 38.3232L3760.14 6L3792.29 38.3232L3760.14 106L3728 38.3232Z" fill="#DCFF7A"/>
</svg>
