<svg width="696" height="758" viewBox="0 0 696 758" fill="none" xmlns="http://www.w3.org/2000/svg">
<g clip-path="url(#clip0_325_719)">
<g clip-path="url(#clip1_325_719)">
<rect width="116" height="379" fill="#4374DB"/>
<rect width="116" height="379" transform="translate(0 379)" fill="#FF5E54"/>
</g>
<g clip-path="url(#clip2_325_719)">
<rect width="116" height="189.5" transform="translate(116)" fill="#FF5E54"/>
<rect width="116" height="189.5" transform="translate(116 189.5)" fill="#E3FD8C"/>
<rect width="116" height="189.5" transform="translate(116 379)" fill="#4374DB"/>
<rect width="116" height="189.5" transform="translate(116 568.5)" fill="#E3FD8C"/>
</g>
<g clip-path="url(#clip3_325_719)">
<rect width="116" height="94.75" transform="translate(232)" fill="#E3FD8C"/>
<rect width="116" height="94.75" transform="translate(232 94.75)" fill="#FF5E54"/>
<rect width="116" height="94.75" transform="translate(232 189.5)" fill="#4374DB"/>
<rect width="116" height="94.75" transform="translate(232 284.25)" fill="#E3FD8C"/>
<rect width="116" height="94.75" transform="translate(232 379)" fill="#FF5E54"/>
<rect width="116" height="94.75" transform="translate(232 473.75)" fill="#E3FD8C"/>
<rect width="116" height="94.75" transform="translate(232 568.5)" fill="#E3FD8C"/>
<rect width="116" height="94.75" transform="translate(232 663.25)" fill="#4374DB"/>
</g>
<g clip-path="url(#clip4_325_719)">
<rect width="116" height="47.375" transform="translate(348)" fill="#4374DB"/>
<rect width="116" height="47.375" transform="translate(348 47.375)" fill="#E3FD8C"/>
<rect width="116" height="47.375" transform="translate(348 94.75)" fill="#FF5E54"/>
<rect width="116" height="47.375" transform="translate(348 142.125)" fill="#E3FD8C"/>
<rect width="116" height="47.375" transform="translate(348 189.5)" fill="#4374DB"/>
<rect width="116" height="47.375" transform="translate(348 236.875)" fill="#E3FD8C"/>
<rect width="116" height="47.375" transform="translate(348 284.25)" fill="#4374DB"/>
<rect width="116" height="47.375" transform="translate(348 331.625)" fill="#E3FD8C"/>
<rect width="116" height="47.375" transform="translate(348 379)" fill="#E3FD8C"/>
<rect width="116" height="47.375" transform="translate(348 426.375)" fill="#FF5E54"/>
<rect width="116" height="47.375" transform="translate(348 473.75)" fill="#4374DB"/>
<rect width="116" height="47.375" transform="translate(348 521.125)" fill="#FF5E54"/>
<rect width="116" height="47.375" transform="translate(348 568.5)" fill="#E3FD8C"/>
<rect width="116" height="47.375" transform="translate(348 615.875)" fill="#4374DB"/>
<rect width="116" height="47.375" transform="translate(348 663.25)" fill="#E3FD8C"/>
<rect width="116" height="47.375" transform="translate(348 710.625)" fill="#FF5E54"/>
</g>
<g clip-path="url(#clip5_325_719)">
<rect width="116" height="23.6875" transform="translate(464)" fill="#E3FD8C"/>
<rect width="116" height="23.6875" transform="translate(464 23.6875)" fill="#4374DB"/>
<rect width="116" height="23.6875" transform="translate(464 47.375)" fill="#E3FD8C"/>
<rect width="116" height="23.6875" transform="translate(464 71.0625)" fill="#4374DB"/>
<rect width="116" height="23.6875" transform="translate(464 94.75)" fill="#FF5E54"/>
<rect width="116" height="23.6875" transform="translate(464 118.438)" fill="#4374DB"/>
<rect width="116" height="23.6875" transform="translate(464 142.125)" fill="#4374DB"/>
<rect width="116" height="23.6875" transform="translate(464 165.812)" fill="#E3FD8C"/>
<rect width="116" height="23.6875" transform="translate(464 189.5)" fill="#4374DB"/>
<rect width="116" height="23.6875" transform="translate(464 213.188)" fill="#E3FD8C"/>
<rect width="116" height="23.6875" transform="translate(464 236.875)" fill="#FF5E54"/>
<rect width="116" height="23.6875" transform="translate(464 260.562)" fill="#E3FD8C"/>
<rect width="116" height="23.6875" transform="translate(464 284.25)" fill="#E3FD8C"/>
<rect width="116" height="23.6875" transform="translate(464 307.938)" fill="#4374DB"/>
<rect width="116" height="23.6875" transform="translate(464 331.625)" fill="#E3FD8C"/>
<rect width="116" height="23.6875" transform="translate(464 355.312)" fill="#E3FD8C"/>
<rect width="116" height="23.6875" transform="translate(464 379)" fill="#FF5E54"/>
<rect width="116" height="23.6875" transform="translate(464 402.688)" fill="#E3FD8C"/>
<rect width="116" height="23.6875" transform="translate(464 426.375)" fill="#E3FD8C"/>
<rect width="116" height="23.6875" transform="translate(464 450.062)" fill="#FF5E54"/>
<rect width="116" height="23.6875" transform="translate(464 473.75)" fill="#E3FD8C"/>
<rect width="116" height="23.6875" transform="translate(464 497.438)" fill="#FF5E54"/>
<rect width="116" height="23.6875" transform="translate(464 521.125)" fill="#4374DB"/>
<rect width="116" height="23.6875" transform="translate(464 544.812)" fill="#4374DB"/>
<rect width="116" height="23.6875" transform="translate(464 568.5)" fill="#FF5E54"/>
<rect width="116" height="23.6875" transform="translate(464 592.188)" fill="#4374DB"/>
<rect width="116" height="23.6875" transform="translate(464 615.875)" fill="#4374DB"/>
<rect width="116" height="23.6875" transform="translate(464 639.562)" fill="#FF5E54"/>
<rect width="116" height="23.6875" transform="translate(464 663.25)" fill="#E3FD8C"/>
<rect width="116" height="23.6875" transform="translate(464 686.938)" fill="#E3FD8C"/>
<rect width="116" height="23.6875" transform="translate(464 710.625)" fill="#FF5E54"/>
<rect width="116" height="23.6875" transform="translate(464 734.312)" fill="#E3FD8C"/>
</g>
<g clip-path="url(#clip6_325_719)">
<rect width="116" height="11.8438" transform="translate(580)" fill="#E3FD8C"/>
<rect width="116" height="11.8438" transform="translate(580 11.8438)" fill="#4374DB"/>
<rect width="116" height="11.8438" transform="translate(580 23.6875)" fill="#E3FD8C"/>
<rect width="116" height="11.8438" transform="translate(580 35.5312)" fill="#4374DB"/>
<rect width="116" height="11.8438" transform="translate(580 47.375)" fill="#FF5E54"/>
<rect width="116" height="11.8438" transform="translate(580 59.2188)" fill="#4374DB"/>
<rect width="116" height="11.8438" transform="translate(580 71.0625)" fill="#4374DB"/>
<rect width="116" height="11.8438" transform="translate(580 82.9062)" fill="#E3FD8C"/>
<rect width="116" height="11.8438" transform="translate(580 94.75)" fill="#4374DB"/>
<rect width="116" height="11.8438" transform="translate(580 106.594)" fill="#E3FD8C"/>
<rect width="116" height="11.8438" transform="translate(580 118.438)" fill="#FF5E54"/>
<rect width="116" height="11.8438" transform="translate(580 130.281)" fill="#E3FD8C"/>
<rect width="116" height="11.8438" transform="translate(580 142.125)" fill="#E3FD8C"/>
<rect width="116" height="11.8438" transform="translate(580 153.969)" fill="#4374DB"/>
<rect width="116" height="11.8438" transform="translate(580 165.812)" fill="#E3FD8C"/>
<rect width="116" height="11.8438" transform="translate(580 177.656)" fill="#E3FD8C"/>
<rect width="116" height="11.8438" transform="translate(580 189.5)" fill="#FF5E54"/>
<rect width="116" height="11.8438" transform="translate(580 201.344)" fill="#E3FD8C"/>
<rect width="116" height="11.8438" transform="translate(580 213.188)" fill="#E3FD8C"/>
<rect width="116" height="11.8438" transform="translate(580 225.031)" fill="#FF5E54"/>
<rect width="116" height="11.8438" transform="translate(580 236.875)" fill="#E3FD8C"/>
<rect width="116" height="11.8438" transform="translate(580 248.719)" fill="#FF5E54"/>
<rect width="116" height="11.8438" transform="translate(580 260.562)" fill="#4374DB"/>
<rect width="116" height="11.8438" transform="translate(580 272.406)" fill="#4374DB"/>
<rect width="116" height="11.8438" transform="translate(580 284.25)" fill="#FF5E54"/>
<rect width="116" height="11.8438" transform="translate(580 296.094)" fill="#4374DB"/>
<rect width="116" height="11.8438" transform="translate(580 307.938)" fill="#4374DB"/>
<rect width="116" height="11.8438" transform="translate(580 319.781)" fill="#FF5E54"/>
<rect width="116" height="11.8438" transform="translate(580 331.625)" fill="#E3FD8C"/>
<rect width="116" height="11.8438" transform="translate(580 343.469)" fill="#E3FD8C"/>
<rect width="116" height="11.8438" transform="translate(580 355.312)" fill="#FF5E54"/>
<rect width="116" height="11.8438" transform="translate(580 367.156)" fill="#E3FD8C"/>
<rect width="116" height="11.8438" transform="translate(580 379)" fill="#E3FD8C"/>
<rect width="116" height="11.8438" transform="translate(580 390.844)" fill="#4374DB"/>
<rect width="116" height="11.8438" transform="translate(580 402.688)" fill="#E3FD8C"/>
<rect width="116" height="11.8438" transform="translate(580 414.531)" fill="#4374DB"/>
<rect width="116" height="11.8438" transform="translate(580 426.375)" fill="#FF5E54"/>
<rect width="116" height="11.8438" transform="translate(580 438.219)" fill="#4374DB"/>
<rect width="116" height="11.8438" transform="translate(580 450.062)" fill="#4374DB"/>
<rect width="116" height="11.8438" transform="translate(580 461.906)" fill="#E3FD8C"/>
<rect width="116" height="11.8438" transform="translate(580 473.75)" fill="#4374DB"/>
<rect width="116" height="11.8438" transform="translate(580 485.594)" fill="#E3FD8C"/>
<rect width="116" height="11.8438" transform="translate(580 497.438)" fill="#FF5E54"/>
<rect width="116" height="11.8438" transform="translate(580 509.281)" fill="#E3FD8C"/>
<rect width="116" height="11.8438" transform="translate(580 521.125)" fill="#E3FD8C"/>
<rect width="116" height="11.8438" transform="translate(580 532.969)" fill="#4374DB"/>
<rect width="116" height="11.8438" transform="translate(580 544.812)" fill="#E3FD8C"/>
<rect width="116" height="11.8438" transform="translate(580 556.656)" fill="#E3FD8C"/>
<rect width="116" height="11.8438" transform="translate(580 568.5)" fill="#FF5E54"/>
<rect width="116" height="11.8438" transform="translate(580 580.344)" fill="#E3FD8C"/>
<rect width="116" height="11.8438" transform="translate(580 592.188)" fill="#E3FD8C"/>
<rect width="116" height="11.8438" transform="translate(580 604.031)" fill="#FF5E54"/>
<rect width="116" height="11.8438" transform="translate(580 615.875)" fill="#E3FD8C"/>
<rect width="116" height="11.8438" transform="translate(580 627.719)" fill="#FF5E54"/>
<rect width="116" height="11.8438" transform="translate(580 639.562)" fill="#4374DB"/>
<rect width="116" height="11.8438" transform="translate(580 651.406)" fill="#4374DB"/>
<rect width="116" height="11.8438" transform="translate(580 663.25)" fill="#FF5E54"/>
<rect width="116" height="11.8438" transform="translate(580 675.094)" fill="#4374DB"/>
<rect width="116" height="11.8438" transform="translate(580 686.938)" fill="#4374DB"/>
<rect width="116" height="11.8438" transform="translate(580 698.781)" fill="#FF5E54"/>
<rect width="116" height="11.8438" transform="translate(580 710.625)" fill="#E3FD8C"/>
<rect width="116" height="11.8438" transform="translate(580 722.469)" fill="#E3FD8C"/>
<rect width="116" height="11.8438" transform="translate(580 734.312)" fill="#FF5E54"/>
<rect width="116" height="11.8438" transform="translate(580 746.156)" fill="#E3FD8C"/>
</g>
</g>
<defs>
<clipPath id="clip0_325_719">
<rect width="696" height="758" fill="white"/>
</clipPath>
<clipPath id="clip1_325_719">
<rect width="116" height="758" fill="white"/>
</clipPath>
<clipPath id="clip2_325_719">
<rect width="116" height="758" fill="white" transform="translate(116)"/>
</clipPath>
<clipPath id="clip3_325_719">
<rect width="116" height="758" fill="white" transform="translate(232)"/>
</clipPath>
<clipPath id="clip4_325_719">
<rect width="116" height="758" fill="white" transform="translate(348)"/>
</clipPath>
<clipPath id="clip5_325_719">
<rect width="116" height="758" fill="white" transform="translate(464)"/>
</clipPath>
<clipPath id="clip6_325_719">
<rect width="116" height="758" fill="white" transform="translate(580)"/>
</clipPath>
</defs>
</svg>
