<svg width="1792" height="54" viewBox="0 0 1792 54" fill="none" xmlns="http://www.w3.org/2000/svg">
<g clip-path="url(#clip0_325_2120)">
<g clip-path="url(#clip1_325_2120)">
<rect width="18.6667" height="18" fill="#4374DB"/>
<rect width="18.6667" height="18" transform="translate(18.666)" fill="#FF5E54"/>
<rect width="18.6667" height="18" transform="translate(37.334)" fill="#E3FD8C"/>
<rect width="18.6667" height="18" transform="translate(56)" fill="#4374DB"/>
<rect width="18.6667" height="18" transform="translate(74.666)" fill="#FF5E54"/>
<rect width="18.6667" height="18" transform="translate(93.334)" fill="#E3FD8C"/>
<rect width="18.6667" height="18" transform="translate(112)" fill="#4374DB"/>
<rect width="18.6667" height="18" transform="translate(130.666)" fill="#FF5E54"/>
<rect width="18.6667" height="18" transform="translate(149.334)" fill="#E3FD8C"/>
<rect width="18.6667" height="18" transform="translate(168)" fill="#4374DB"/>
<rect width="18.6667" height="18" transform="translate(186.666)" fill="#FF5E54"/>
<rect width="18.6667" height="18" transform="translate(205.334)" fill="#E3FD8C"/>
<rect width="18.6667" height="18" transform="translate(224)" fill="#4374DB"/>
<rect width="18.6667" height="18" transform="translate(242.666)" fill="#FF5E54"/>
<rect width="18.6667" height="18" transform="translate(261.334)" fill="#E3FD8C"/>
<rect width="18.6667" height="18" transform="translate(280)" fill="#4374DB"/>
<rect width="18.6667" height="18" transform="translate(298.666)" fill="#FF5E54"/>
<rect width="18.6667" height="18" transform="translate(317.334)" fill="#E3FD8C"/>
<rect width="18.6667" height="18" transform="translate(336)" fill="#4374DB"/>
<rect width="18.6667" height="18" transform="translate(354.666)" fill="#FF5E54"/>
<rect width="18.6667" height="18" transform="translate(373.334)" fill="#E3FD8C"/>
<rect width="18.6667" height="18" transform="translate(392)" fill="#4374DB"/>
<rect width="18.6667" height="18" transform="translate(410.666)" fill="#FF5E54"/>
<rect width="18.6667" height="18" transform="translate(429.334)" fill="#E3FD8C"/>
<rect width="18.6667" height="18" transform="translate(448)" fill="#4374DB"/>
<rect width="18.6667" height="18" transform="translate(466.666)" fill="#FF5E54"/>
<rect width="18.6667" height="18" transform="translate(485.334)" fill="#E3FD8C"/>
<rect width="18.6667" height="18" transform="translate(504)" fill="#4374DB"/>
<rect width="18.6667" height="18" transform="translate(522.666)" fill="#FF5E54"/>
<rect width="18.6667" height="18" transform="translate(541.334)" fill="#E3FD8C"/>
<rect width="18.6667" height="18" transform="translate(560)" fill="#4374DB"/>
<rect width="18.6667" height="18" transform="translate(578.666)" fill="#FF5E54"/>
<rect width="18.6667" height="18" transform="translate(597.334)" fill="#E3FD8C"/>
<rect width="18.6667" height="18" transform="translate(616)" fill="#4374DB"/>
<rect width="18.6667" height="18" transform="translate(634.666)" fill="#FF5E54"/>
<rect width="18.6667" height="18" transform="translate(653.334)" fill="#E3FD8C"/>
<rect width="18.6667" height="18" transform="translate(672)" fill="#4374DB"/>
<rect width="18.6667" height="18" transform="translate(690.666)" fill="#FF5E54"/>
<rect width="18.6667" height="18" transform="translate(709.334)" fill="#E3FD8C"/>
<rect width="18.6667" height="18" transform="translate(728)" fill="#4374DB"/>
<rect width="18.6667" height="18" transform="translate(746.666)" fill="#FF5E54"/>
<rect width="18.6667" height="18" transform="translate(765.334)" fill="#E3FD8C"/>
<rect width="18.6667" height="18" transform="translate(784)" fill="#4374DB"/>
<rect width="18.6667" height="18" transform="translate(802.666)" fill="#FF5E54"/>
<rect width="18.6667" height="18" transform="translate(821.334)" fill="#E3FD8C"/>
<rect width="18.6667" height="18" transform="translate(840)" fill="#4374DB"/>
<rect width="18.6667" height="18" transform="translate(858.666)" fill="#FF5E54"/>
<rect width="18.6667" height="18" transform="translate(877.334)" fill="#E3FD8C"/>
<rect width="18.6667" height="18" transform="translate(896)" fill="#4374DB"/>
<rect width="18.6667" height="18" transform="translate(914.668)" fill="#FF5E54"/>
<rect width="18.6667" height="18" transform="translate(933.334)" fill="#E3FD8C"/>
<rect width="18.6667" height="18" transform="translate(952)" fill="#4374DB"/>
<rect width="18.6667" height="18" transform="translate(970.668)" fill="#FF5E54"/>
<rect width="18.6667" height="18" transform="translate(989.334)" fill="#E3FD8C"/>
<rect width="18.6667" height="18" transform="translate(1008)" fill="#4374DB"/>
<rect width="18.6667" height="18" transform="translate(1026.67)" fill="#FF5E54"/>
<rect width="18.6667" height="18" transform="translate(1045.33)" fill="#E3FD8C"/>
<rect width="18.6667" height="18" transform="translate(1064)" fill="#4374DB"/>
<rect width="18.6667" height="18" transform="translate(1082.67)" fill="#FF5E54"/>
<rect width="18.6667" height="18" transform="translate(1101.33)" fill="#E3FD8C"/>
<rect width="18.6667" height="18" transform="translate(1120)" fill="#4374DB"/>
<rect width="18.6667" height="18" transform="translate(1138.67)" fill="#FF5E54"/>
<rect width="18.6667" height="18" transform="translate(1157.33)" fill="#E3FD8C"/>
<rect width="18.6667" height="18" transform="translate(1176)" fill="#4374DB"/>
<rect width="18.6667" height="18" transform="translate(1194.67)" fill="#FF5E54"/>
<rect width="18.6667" height="18" transform="translate(1213.33)" fill="#E3FD8C"/>
<rect width="18.6667" height="18" transform="translate(1232)" fill="#4374DB"/>
<rect width="18.6667" height="18" transform="translate(1250.67)" fill="#FF5E54"/>
<rect width="18.6667" height="18" transform="translate(1269.33)" fill="#E3FD8C"/>
<rect width="18.6667" height="18" transform="translate(1288)" fill="#4374DB"/>
<rect width="18.6667" height="18" transform="translate(1306.67)" fill="#FF5E54"/>
<rect width="18.6667" height="18" transform="translate(1325.33)" fill="#E3FD8C"/>
<rect width="18.6667" height="18" transform="translate(1344)" fill="#4374DB"/>
<rect width="18.6667" height="18" transform="translate(1362.67)" fill="#FF5E54"/>
<rect width="18.6667" height="18" transform="translate(1381.33)" fill="#E3FD8C"/>
<rect width="18.6667" height="18" transform="translate(1400)" fill="#4374DB"/>
<rect width="18.6667" height="18" transform="translate(1418.67)" fill="#FF5E54"/>
<rect width="18.6667" height="18" transform="translate(1437.33)" fill="#E3FD8C"/>
<rect width="18.6667" height="18" transform="translate(1456)" fill="#4374DB"/>
<rect width="18.6667" height="18" transform="translate(1474.67)" fill="#FF5E54"/>
<rect width="18.6667" height="18" transform="translate(1493.33)" fill="#E3FD8C"/>
<rect width="18.6667" height="18" transform="translate(1512)" fill="#4374DB"/>
<rect width="18.6667" height="18" transform="translate(1530.67)" fill="#FF5E54"/>
<rect width="18.6667" height="18" transform="translate(1549.33)" fill="#E3FD8C"/>
<rect width="18.6667" height="18" transform="translate(1568)" fill="#4374DB"/>
<rect width="18.6667" height="18" transform="translate(1586.67)" fill="#FF5E54"/>
<rect width="18.6667" height="18" transform="translate(1605.33)" fill="#E3FD8C"/>
<rect width="18.6667" height="18" transform="translate(1624)" fill="#4374DB"/>
<rect width="18.6667" height="18" transform="translate(1642.67)" fill="#FF5E54"/>
<rect width="18.6667" height="18" transform="translate(1661.33)" fill="#E3FD8C"/>
<rect width="18.6667" height="18" transform="translate(1680)" fill="#4374DB"/>
<rect width="18.6667" height="18" transform="translate(1698.67)" fill="#FF5E54"/>
<rect width="18.6667" height="18" transform="translate(1717.33)" fill="#E3FD8C"/>
<rect width="18.6667" height="18" transform="translate(1736)" fill="#4374DB"/>
<rect width="18.6667" height="18" transform="translate(1754.67)" fill="#FF5E54"/>
<rect width="18.6667" height="18" transform="translate(1773.33)" fill="#E3FD8C"/>
</g>
<g clip-path="url(#clip2_325_2120)">
<rect width="37.3333" height="36" transform="translate(0 18)" fill="#4374DB"/>
<rect width="37.3333" height="36" transform="translate(37.334 18)" fill="#FF5E54"/>
<rect width="37.3333" height="36" transform="translate(74.666 18)" fill="#E3FD8C"/>
<rect width="37.3333" height="36" transform="translate(112 18)" fill="#4374DB"/>
<rect width="37.3333" height="36" transform="translate(149.334 18)" fill="#FF5E54"/>
<rect width="37.3333" height="36" transform="translate(186.666 18)" fill="#E3FD8C"/>
<rect width="37.3333" height="36" transform="translate(224 18)" fill="#4374DB"/>
<rect width="37.3333" height="36" transform="translate(261.334 18)" fill="#FF5E54"/>
<rect width="37.3333" height="36" transform="translate(298.666 18)" fill="#E3FD8C"/>
<rect width="37.3333" height="36" transform="translate(336 18)" fill="#4374DB"/>
<rect width="37.3333" height="36" transform="translate(373.334 18)" fill="#FF5E54"/>
<rect width="37.3333" height="36" transform="translate(410.666 18)" fill="#E3FD8C"/>
<rect width="37.3333" height="36" transform="translate(448 18)" fill="#4374DB"/>
<rect width="37.3333" height="36" transform="translate(485.334 18)" fill="#FF5E54"/>
<rect width="37.3333" height="36" transform="translate(522.666 18)" fill="#E3FD8C"/>
<rect width="37.3333" height="36" transform="translate(560 18)" fill="#4374DB"/>
<rect width="37.3333" height="36" transform="translate(597.334 18)" fill="#FF5E54"/>
<rect width="37.3333" height="36" transform="translate(634.666 18)" fill="#E3FD8C"/>
<rect width="37.3333" height="36" transform="translate(672 18)" fill="#4374DB"/>
<rect width="37.3333" height="36" transform="translate(709.334 18)" fill="#FF5E54"/>
<rect width="37.3333" height="36" transform="translate(746.666 18)" fill="#E3FD8C"/>
<rect width="37.3333" height="36" transform="translate(784 18)" fill="#4374DB"/>
<rect width="37.3333" height="36" transform="translate(821.334 18)" fill="#FF5E54"/>
<rect width="37.3333" height="36" transform="translate(858.666 18)" fill="#E3FD8C"/>
<rect width="37.3333" height="36" transform="translate(896 18)" fill="#4374DB"/>
<rect width="37.3333" height="36" transform="translate(933.334 18)" fill="#FF5E54"/>
<rect width="37.3333" height="36" transform="translate(970.666 18)" fill="#E3FD8C"/>
<rect width="37.3333" height="36" transform="translate(1008 18)" fill="#4374DB"/>
<rect width="37.3333" height="36" transform="translate(1045.33 18)" fill="#FF5E54"/>
<rect width="37.3333" height="36" transform="translate(1082.67 18)" fill="#E3FD8C"/>
<rect width="37.3333" height="36" transform="translate(1120 18)" fill="#4374DB"/>
<rect width="37.3333" height="36" transform="translate(1157.33 18)" fill="#FF5E54"/>
<rect width="37.3333" height="36" transform="translate(1194.67 18)" fill="#E3FD8C"/>
<rect width="37.3333" height="36" transform="translate(1232 18)" fill="#4374DB"/>
<rect width="37.3333" height="36" transform="translate(1269.33 18)" fill="#FF5E54"/>
<rect width="37.3333" height="36" transform="translate(1306.67 18)" fill="#E3FD8C"/>
<rect width="37.3333" height="36" transform="translate(1344 18)" fill="#4374DB"/>
<rect width="37.3333" height="36" transform="translate(1381.33 18)" fill="#FF5E54"/>
<rect width="37.3333" height="36" transform="translate(1418.67 18)" fill="#E3FD8C"/>
<rect width="37.3333" height="36" transform="translate(1456 18)" fill="#4374DB"/>
<rect width="37.3333" height="36" transform="translate(1493.33 18)" fill="#FF5E54"/>
<rect width="37.3333" height="36" transform="translate(1530.67 18)" fill="#E3FD8C"/>
<rect width="37.3333" height="36" transform="translate(1568 18)" fill="#4374DB"/>
<rect width="37.3333" height="36" transform="translate(1605.33 18)" fill="#FF5E54"/>
<rect width="37.3333" height="36" transform="translate(1642.67 18)" fill="#E3FD8C"/>
<rect width="37.3333" height="36" transform="translate(1680 18)" fill="#4374DB"/>
<rect width="37.3333" height="36" transform="translate(1717.33 18)" fill="#FF5E54"/>
<rect width="37.3333" height="36" transform="translate(1754.67 18)" fill="#E3FD8C"/>
</g>
</g>
<defs>
<clipPath id="clip0_325_2120">
<rect width="1792" height="54" fill="white"/>
</clipPath>
<clipPath id="clip1_325_2120">
<rect width="1792" height="18" fill="white"/>
</clipPath>
<clipPath id="clip2_325_2120">
<rect width="1792" height="36" fill="white" transform="translate(0 18)"/>
</clipPath>
</defs>
</svg>
